<svg width="87" height="87" viewBox="0 0 87 87" fill="none" xmlns="http://www.w3.org/2000/svg">
<path d="M43.4719 86.94C67.4808 86.94 86.9438 67.4778 86.9438 43.47C86.9438 19.4622 67.4808 0 43.4719 0C19.4631 0 0 19.4622 0 43.47C0 67.4778 19.4631 86.94 43.4719 86.94Z" fill="#FCBF21"/>
<path d="M57.4971 43.3721C57.844 43.55 58.1019 43.6745 58.3509 43.8079C60.601 45.0174 61.7483 46.9383 61.8461 49.4551C61.9261 51.5183 61.855 53.5815 61.8995 55.6537C61.9173 56.3829 61.6327 56.5874 60.9212 56.5874C58.013 56.5519 55.1048 56.5519 52.1966 56.5963C51.325 56.6141 51.1027 56.294 51.1293 55.4758C51.1827 53.8217 51.1382 52.1586 51.1382 50.5045C51.1382 48.6191 50.4445 47.8632 48.5413 47.7565C47.6697 47.7031 46.7981 47.7387 45.9265 47.7298C42.8405 47.7298 39.7633 47.7476 36.6772 47.712C36.0013 47.712 35.7701 47.8988 35.7879 48.5925C35.8323 50.9492 35.7879 53.3059 35.8145 55.6626C35.8145 56.3384 35.61 56.5786 34.9163 56.5697C31.9458 56.543 28.9843 56.5341 26.0138 56.5697C25.2846 56.5697 25.0711 56.3473 25.0711 55.627C25.0889 47.4808 25.0889 39.3346 25.0711 31.1973C25.0711 30.3614 25.4802 30.3436 26.0938 30.3436C34.3293 30.3525 42.5559 30.3169 50.7914 30.3792C52.6057 30.397 54.4555 30.6193 56.2253 31.0373C60.263 31.9799 62.1663 35.137 61.3036 39.1923C60.9212 41.0065 59.8362 42.2516 58.1908 43.0431C57.9952 43.1409 57.7906 43.2299 57.506 43.3633L57.4971 43.3721ZM42.796 40.5085C44.4858 40.5085 46.1667 40.5085 47.8565 40.5085C48.4346 40.5085 49.0215 40.5085 49.5996 40.4374C50.1866 40.3573 50.5335 39.9572 50.5335 39.3524C50.5335 38.7566 50.1866 38.3742 49.5996 38.2674C49.2617 38.2052 48.9059 38.1963 48.5591 38.1963C46.1222 38.1963 43.6765 38.1963 41.2397 38.1963C39.6744 38.1963 38.1002 38.2052 36.5349 38.1963C36.028 38.1963 35.7523 38.3386 35.8056 38.89C35.8234 39.0945 35.8323 39.2991 35.8056 39.5036C35.6989 40.2773 35.9658 40.5708 36.8018 40.553C38.8028 40.4996 40.8127 40.5352 42.8138 40.5352L42.796 40.5085Z" fill="white"/>
</svg>
